<?xml version="1.0" encoding="UTF-8" standalone="no"?>
<!-- Created with Inkscape (http://www.inkscape.org/) -->

<svg
   xmlns:dc="http://purl.org/dc/elements/1.1/"
   xmlns:cc="http://creativecommons.org/ns#"
   xmlns:rdf="http://www.w3.org/1999/02/22-rdf-syntax-ns#"
   xmlns:svg="http://www.w3.org/2000/svg"
   xmlns="http://www.w3.org/2000/svg"
   xmlns:xlink="http://www.w3.org/1999/xlink"
   xmlns:sodipodi="http://sodipodi.sourceforge.net/DTD/sodipodi-0.dtd"
   xmlns:inkscape="http://www.inkscape.org/namespaces/inkscape"
   width="55px"
   height="55px"
   id="svg4502"
   sodipodi:version="0.32"
   inkscape:version="0.47pre4 r22446"
   version="1.0"
   sodipodi:docname="Icon_template.inkscape.svg"
   inkscape:output_extension="org.inkscape.output.svg.inkscape">
  <defs
     id="defs4504">
    <inkscape:perspective
       sodipodi:type="inkscape:persp3d"
       inkscape:vp_x="0 : 27.5 : 1"
       inkscape:vp_y="0 : 1000 : 0"
       inkscape:vp_z="55 : 27.5 : 1"
       inkscape:persp3d-origin="27.5 : 18.333333 : 1"
       id="perspective27" />
    <inkscape:perspective
       id="perspective2856"
       inkscape:persp3d-origin="0.5 : 0.33333333 : 1"
       inkscape:vp_z="1 : 0.5 : 1"
       inkscape:vp_y="0 : 1000 : 0"
       inkscape:vp_x="0 : 0.5 : 1"
       sodipodi:type="inkscape:persp3d" />
  </defs>
  <sodipodi:namedview
     id="base"
     pagecolor="#ffffff"
     bordercolor="#666666"
     borderopacity="1.0"
     gridtolerance="10000"
     guidetolerance="10"
     objecttolerance="10"
     inkscape:pageopacity="0.0"
     inkscape:pageshadow="2"
     inkscape:zoom="1.979899"
     inkscape:cx="-50.301774"
     inkscape:cy="-38.987469"
     inkscape:document-units="px"
     inkscape:current-layer="layer1"
     width="55px"
     height="55px"
     inkscape:window-width="1280"
     inkscape:window-height="897"
     inkscape:window-x="0"
     inkscape:window-y="30"
     showgrid="false"
     inkscape:window-maximized="1">
    <inkscape:grid
       id="GridFromPre046Settings"
       type="xygrid"
       originx="0px"
       originy="0px"
       spacingx="15px"
       spacingy="15px"
       color="#0000ff"
       empcolor="#0000ff"
       opacity="0.2"
       empopacity="0.4"
       empspacing="5" />
  </sodipodi:namedview>
  <metadata
     id="metadata4507">
    <rdf:RDF>
      <cc:Work
         rdf:about="">
        <dc:format>image/svg+xml</dc:format>
        <dc:type
           rdf:resource="http://purl.org/dc/dcmitype/StillImage" />
        <dc:title></dc:title>
      </cc:Work>
    </rdf:RDF>
  </metadata>
  <g
     inkscape:label="_guide"
     inkscape:groupmode="layer"
     id="layer1"
     style="display:none"
     sodipodi:insensitive="true">
    <g
       id="_x5F_guide">
      <rect
         x="0"
         width="55"
         height="55"
         id="rect2336"
         y="0"
         style="fill:#282828;fill-opacity:1" />
      <rect
         x="5"
         y="5"
         width="45"
         height="45"
         id="rect2338"
         style="fill:none;stroke:#000000;stroke-opacity:1" />
      <flowRoot
         xml:space="preserve"
         id="flowRoot4579"><flowRegion
           id="flowRegion4581"><rect
             id="rect4583"
             width="47.72971"
             height="44.194176"
             x="62.124382"
             y="-15.710678" /></flowRegion><flowPara
           id="flowPara4585">r2r2r23r23r23r23r23r</flowPara></flowRoot>    </g>
  </g>
  <g
     inkscape:groupmode="layer"
     id="layer2"
     inkscape:label="_swatches"
     style="display:inline">
    <g
       id="_x5F_swatches"
       transform="translate(10.606602,8.5862966)">
      <rect
         x="55"
         width="55"
         height="55"
         id="rect2318"
         y="0"
         style="fill:#000000;fill-opacity:1" />
      <rect
         x="84.695"
         y="16.556999"
         width="8.783"
         height="8.7799997"
         id="rect2320"
         style="fill:#666666;stroke:#ffffff;stroke-width:3.5" />
      <rect
         x="84.695"
         y="29.729"
         width="8.783"
         height="8.7819996"
         id="rect2322"
         style="fill:#ffffff;stroke:#ffffff;stroke-width:3.5" />
      <rect
         x="97.867996"
         y="16.556"
         width="8.7819996"
         height="8.7810001"
         id="rect2324"
         style="fill:#666666" />
      <rect
         x="71.521004"
         y="16.556999"
         width="8.783"
         height="8.7799997"
         id="rect2326"
         style="fill:#666666;stroke:#666666;stroke-width:3.5" />
      <rect
         x="84.695"
         y="3.3840001"
         width="8.783"
         height="8.7799997"
         id="rect2328"
         style="fill:none;stroke:#ffffff;stroke-width:3.5" />
      <rect
         x="58.349998"
         y="29.729"
         width="8.783"
         height="8.7819996"
         id="rect2330"
         style="fill:#ffffff" />
      <rect
         x="71.521004"
         y="42.900002"
         width="8.783"
         height="8.7810001"
         id="rect2332"
         style="fill:none;stroke:#666666;stroke-width:3.5" />
      <rect
         x="71.521004"
         y="29.729"
         width="8.783"
         height="8.7819996"
         id="rect2334"
         style="fill:#ffffff;stroke:#666666;stroke-width:3.5" />
    </g>
    <path
       sodipodi:type="arc"
       style="fill:#ffffff;fill-opacity:1;stroke:#666666;stroke-width:2.43559003;stroke-linecap:round;stroke-linejoin:round;stroke-miterlimit:4;stroke-opacity:1;stroke-dasharray:none;display:inline"
       id="path2165"
       sodipodi:cx="29.546961"
       sodipodi:cy="27.725882"
       sodipodi:rx="15.657364"
       sodipodi:ry="15.657364"
       d="m 45.204325,27.725882 a 15.657364,15.657364 0 1 1 -31.314728,0 15.657364,15.657364 0 1 1 31.314728,0 z"
       transform="matrix(1.4370235,0,0,1.4370235,-14.959677,-12.342744)" />
    <path
       style="fill:#5f5f5f;fill-opacity:1;stroke:#666666;stroke-width:0.25299999;stroke-miterlimit:4;stroke-opacity:1;stroke-dasharray:none"
       d="m 20.753023,36.566494 c 0,-0.08261 0.539801,-0.307221 1.199556,-0.499142 l 1.199557,-0.348948 0.0742,-1.805268 c 0.04081,-0.992898 -0.02213,-1.805269 -0.139864,-1.805269 -0.117734,0 -0.599575,0.397748 -1.070756,0.883884 -0.471181,0.486136 -0.971106,0.883883 -1.110944,0.883883 -0.139838,0 0.189623,-0.454568 0.732137,-1.010152 0.542513,-0.555584 0.845154,-1.010153 0.672537,-1.010153 -0.525331,0 -2.329818,1.009972 -2.473508,1.384424 -0.07418,0.193298 -0.267513,0.311402 -0.429638,0.262452 -0.162125,-0.04895 -0.998159,-0.152954 -1.857854,-0.231123 -1.403129,-0.12758 -1.579308,-0.091 -1.72165,0.357483 -0.216493,0.682109 -0.62961,0.631253 -0.62961,-0.07751 0,-0.527364 -0.125178,-0.582208 -1.452094,-0.636205 -1.696823,-0.06905 -2.335978,-0.233465 -2.335978,-0.600907 0,-0.250416 0.251956,-0.226032 1.767767,0.171082 0.608274,0.159357 0.613432,0.150874 0.141136,-0.232149 -0.269615,-0.218653 -0.781005,-0.399291 -1.136421,-0.401418 -0.761921,-0.0046 -1.440305,-0.370818 -1.088989,-0.587943 0.236813,-0.146359 1.52043,0.188756 2.39652,0.625661 0.241183,0.120278 0.837805,0.218687 1.325825,0.218687 l 0.887311,0 0,-1.253805 c 0,-1.012506 -0.101367,-1.308055 -0.526706,-1.53569 -0.289688,-0.155036 -0.469884,-0.338705 -0.400436,-0.408153 0.06945,-0.06945 0.363287,5.81e-4 0.652975,0.155615 0.482051,0.257986 0.529743,0.211549 0.562541,-0.54775 0.03414,-0.790361 0.04311,-0.781816 0.189404,0.180518 0.131941,0.867901 0.272154,1.048483 0.995671,1.282341 0.463158,0.149704 0.931107,0.416197 1.039888,0.592207 0.13843,0.223986 0.242764,0.140797 0.347678,-0.277213 0.08244,-0.328478 0.400586,-0.866316 0.706984,-1.195196 0.463219,-0.497208 0.514146,-0.711729 0.302239,-1.273135 -0.147867,-0.391746 -0.166094,-0.915098 -0.04342,-1.24672 0.125313,-0.338753 0.105431,-0.769611 -0.04881,-1.057818 -0.212924,-0.397851 -0.176015,-0.486269 0.202987,-0.486269 0.298901,0 0.575008,-0.309119 0.778326,-0.871386 0.173304,-0.479262 0.650702,-1.153779 1.060885,-1.498925 0.410183,-0.345146 0.745787,-0.748517 0.745787,-0.89638 0,-0.147863 0.198874,-0.271185 0.441942,-0.274049 0.243068,-0.0029 1.488957,-0.682193 2.768642,-1.509621 2.141574,-1.384713 2.357931,-1.600305 2.719203,-2.709578 0.37159,-1.140953 0.386385,-1.154707 0.277692,-0.258146 -0.06314,0.52086 -0.06287,0.947018 6.06e-4,0.947018 0.06348,0 0.586049,-0.312516 1.161274,-0.69448 1.622603,-1.077455 2.457796,-1.569829 4.460209,-2.629445 2.993269,-1.583946 5.484883,-2.316753 4.953432,-1.45685 -0.07991,0.129299 0.03902,0.235088 0.264294,0.235088 0.249419,0 0.381156,0.172818 0.336881,0.441942 -0.03999,0.243068 0.0058,0.566874 0.101785,0.71957 0.205824,0.327479 -1.230911,2.374022 -1.666635,2.374022 -0.16468,0 -0.730985,0.355731 -1.258451,0.790514 -1.247601,1.028379 -0.952826,1.301729 1.396948,1.295417 l 1.846117,-0.005 -1.010153,0.343746 c -0.555584,0.18906 -1.2079,0.459776 -1.449594,0.60159 -0.341515,0.200387 -0.509809,0.145165 -0.755226,-0.24781 -0.224938,-0.36018 -0.588926,-0.505654 -1.265192,-0.505654 -0.522173,0 -0.951805,0.08523 -0.954738,0.189404 -0.0029,0.104172 -0.693972,0.700793 -1.535641,1.325825 -0.841669,0.625032 -1.68931,1.438894 -1.883646,1.808582 -0.22943,0.436448 -0.510091,0.635904 -0.800337,0.568772 -0.245849,-0.05686 -1.072031,0.322519 -1.835959,0.843069 -1.162797,0.792347 -1.402261,1.085684 -1.470653,1.801513 -0.07238,0.757534 -0.02197,0.839438 0.441942,0.718122 0.287999,-0.07531 0.523635,-0.0375 0.523635,0.08404 0,0.121533 0.198874,0.156233 0.441942,0.07711 0.243068,-0.07912 -0.09803,0.385424 -0.757993,1.032325 l -1.199934,1.176184 0.131055,2.195462 c 0.08828,1.478812 0.05298,2.030593 -0.108141,1.690386 -0.131558,-0.277792 -0.248434,-0.959645 -0.259725,-1.515229 -0.01129,-0.555584 -0.09097,-1.436311 -0.177062,-1.957171 -0.129554,-0.783799 -0.25965,-0.947018 -0.754835,-0.947018 -0.695673,0 -0.743003,0.143915 -0.219495,0.667422 0.394704,0.394705 0.518084,1.106251 0.189403,1.092314 -0.104172,-0.0044 -0.409997,-0.174881 -0.679613,-0.378807 -1.057933,-0.800181 -1.151288,-0.563528 -1.151288,2.91847 l 0,3.289246 -0.69448,0.264663 c -0.949501,0.36185 -2.08344,0.575958 -2.08344,0.393391 z M 19.01199,32.051912 c -0.148257,-0.389944 -0.620879,-0.783502 -1.23691,-1.029989 -0.548335,-0.2194 -1.065009,-0.576207 -1.148163,-0.792904 -0.300522,-0.783147 -0.672118,-0.369223 -0.672118,0.748677 0,0.995805 0.08371,1.174498 0.651272,1.390286 0.358199,0.136187 0.908673,0.200937 1.223275,0.143889 0.314602,-0.05705 0.728502,-0.007 0.919778,0.111212 0.480998,0.297273 0.542357,0.163948 0.262866,-0.571171 z m 4.013876,-2.1522 c 0,-1.177654 -0.355138,-1.353395 -0.865841,-0.428464 -0.148819,0.269525 -0.349813,0.549866 -0.446653,0.622979 -0.09684,0.07311 -0.07894,0.290093 0.03977,0.482176 0.118714,0.192082 0.155935,0.50536 0.08271,0.696172 -0.109583,0.285569 -0.01612,0.293617 0.528441,0.0455 0.56858,-0.259062 0.661571,-0.45843 0.661571,-1.418362 z"
       id="path2870" />
    <path
       style="fill:#5f5f5f;fill-opacity:1;stroke:#666666;stroke-width:0.06389215;stroke-miterlimit:4;stroke-opacity:1;stroke-dasharray:none"
       d="m 21.586399,36.249724 c 1.629662,-0.668597 1.636792,-0.678916 1.716646,-2.484419 0.07269,-1.643545 0.05721,-1.693405 -0.473567,-1.524944 -0.371039,0.117763 -0.492762,0.08362 -0.375916,-0.105438 0.388895,-0.629247 -1.380381,-0.0046 -2.312456,0.816385 -0.492011,0.433384 -0.796379,0.47465 -2.462247,0.333833 -1.782316,-0.150661 -1.900837,-0.129388 -1.900837,0.341176 0,0.27602 -0.113642,0.501855 -0.252538,0.501855 -0.138896,0 -0.252538,-0.282765 -0.252538,-0.628368 0,-0.444195 -0.129532,-0.617513 -0.441942,-0.591332 -1.321171,0.110717 -2.803692,-0.0909 -3.234728,-0.439917 -0.467223,-0.378315 -0.454685,-0.390442 0.267405,-0.258618 0.416688,0.07607 1.04172,0.206301 1.38896,0.289401 0.608936,0.145729 0.613945,0.136981 0.141136,-0.246458 -0.269615,-0.218653 -0.781005,-0.399291 -1.136422,-0.401418 -0.743496,-0.0044 -1.440702,-0.370572 -1.103058,-0.579248 0.125633,-0.07765 0.39346,-0.03677 0.595172,0.09083 0.201713,0.127604 0.672559,0.233748 1.046326,0.235875 0.373767,0.0021 0.74981,0.117509 0.835653,0.256405 0.08584,0.138896 0.534959,0.252538 0.998038,0.252538 0.934849,0 1.148536,-0.308039 1.148536,-1.655667 0,-0.702237 -0.140861,-0.929586 -0.781083,-1.260657 -0.429595,-0.222153 -0.723748,-0.461249 -0.653671,-0.531325 0.07008,-0.07008 0.449973,0.04265 0.844217,0.25049 l 0.716806,0.377902 0.300768,-2.441578 0.300768,-2.441578 -0.127876,2.47961 c -0.131745,2.554636 0.04288,3.202498 0.863202,3.202498 0.215124,0 0.598957,0.188076 0.852962,0.417948 0.431253,0.390279 0.461826,0.387677 0.461826,-0.0393 0,-0.251484 0.301739,-0.852844 0.670532,-1.336356 0.567599,-0.744162 0.623385,-0.954604 0.363405,-1.370897 -0.181793,-0.291098 -0.238787,-0.802928 -0.139662,-1.254239 0.143489,-0.653302 0.0299,-0.903331 -0.793465,-1.746532 -0.528511,-0.541243 -0.844032,-0.984079 -0.701159,-0.984079 0.142873,0 0.526673,0.284105 0.852888,0.631345 0.697687,0.742655 1.515228,0.837971 1.515228,0.17666 0,-0.514561 1.998979,-3.04425 2.423095,-3.066404 0.152086,-0.0079 0.979826,-0.469013 1.839422,-1.024597 0.859596,-0.555584 1.6443,-1.012679 1.743785,-1.015768 0.538966,-0.01673 1.484809,-1.116214 1.878912,-2.184114 0.434856,-1.178329 0.445297,-1.187073 0.309015,-0.258782 l -0.141048,0.960753 0.834769,-0.428073 c 0.459123,-0.23544 1.122947,-0.667779 1.475166,-0.960753 0.784261,-0.652345 6.670195,-3.610262 7.630227,-3.834493 0.536994,-0.125423 0.694479,-0.0701 0.694479,0.243978 0,0.223401 0.132626,0.377774 0.294722,0.34305 0.180116,-0.03858 0.313585,0.329687 0.343225,0.947018 0.05464,1.138081 -0.728575,2.313123 -1.874123,2.811702 -0.760547,0.331012 -1.794281,1.26293 -1.794281,1.617553 0,0.246321 0.974613,0.336047 3.030457,0.278991 l 1.136422,-0.03154 -1.08129,0.352151 c -0.59471,0.193684 -1.230901,0.476319 -1.413762,0.628078 -0.249353,0.206946 -0.446537,0.149882 -0.788752,-0.228258 -0.446742,-0.493646 -2.008493,-0.718346 -2.187856,-0.314781 -0.0463,0.104172 -0.732911,0.682568 -1.525805,1.285326 -0.792894,0.602757 -1.671707,1.455073 -1.952916,1.894036 -0.28121,0.438962 -0.513205,0.646681 -0.515545,0.461596 -0.0029,-0.229051 -0.393504,-0.108079 -1.223135,0.378807 -2.159107,1.267116 -2.646606,1.761458 -2.462086,2.496644 0.09023,0.359521 0.300908,0.608058 0.468165,0.552306 0.167257,-0.05575 0.469549,0.06408 0.67176,0.266288 0.32185,0.32185 0.247609,0.477672 -0.595877,1.250668 l -0.963533,0.883012 0.173546,1.989487 c 0.104331,1.196031 0.0789,1.989486 -0.06377,1.989486 -0.130526,0 -0.317331,-1.02278 -0.415122,-2.272844 -0.171192,-2.188361 -0.200563,-2.272843 -0.790188,-2.272843 -0.621874,0 -0.819726,0.347126 -0.359848,0.631346 0.310968,0.192189 0.336661,1.136421 0.03092,1.136421 -0.121889,0 -0.363088,-0.170463 -0.535998,-0.378807 -0.17291,-0.208344 -0.49966,-0.378807 -0.72611,-0.378807 -0.359745,0 -0.411638,0.418706 -0.411019,3.31641 l 7.07e-4,3.316411 -1.136421,0.341559 c -1.467636,0.441107 -1.891428,0.410563 -0.757615,-0.0546 l 0,0 z M 19.03149,32.131716 c -0.162457,-0.466025 -0.549291,-0.849528 -1.06015,-1.051023 -0.442397,-0.174491 -1.060053,-0.545959 -1.372569,-0.825484 l -0.568211,-0.508227 0,1.295269 c 0,1.279831 0.01051,1.29724 0.881982,1.460729 0.48509,0.091 1.049661,0.101116 1.254603,0.02247 0.204942,-0.07864 0.439789,-0.03431 0.521882,0.09852 0.335709,0.543188 0.580674,0.191075 0.342463,-0.492257 l 0,-10e-7 z m 4.068168,-2.233557 c 0.0011,-0.590308 -0.09024,-1.073287 -0.202949,-1.073287 -0.435085,0 -1.337952,1.078936 -1.201163,1.435403 0.07887,0.20552 0.143391,0.58097 0.143391,0.834334 0,0.400716 0.0819,0.422676 0.629375,0.168749 0.525716,-0.243834 0.6297,-0.468684 0.631346,-1.365199 z"
       id="path3644" />
    <path
       style="fill:#5f5f5f;fill-opacity:1;stroke:#666666;stroke-width:0.06389215;stroke-miterlimit:4;stroke-opacity:1;stroke-dasharray:none"
       d="m 21.586399,36.249724 c 1.629662,-0.668597 1.636792,-0.678916 1.716646,-2.484419 0.07269,-1.643545 0.05721,-1.693405 -0.473567,-1.524944 -0.371039,0.117763 -0.492762,0.08362 -0.375916,-0.105438 0.388895,-0.629247 -1.380381,-0.0046 -2.312456,0.816385 -0.492011,0.433384 -0.796379,0.47465 -2.462247,0.333833 -1.782316,-0.150661 -1.900837,-0.129388 -1.900837,0.341176 0,0.27602 -0.113642,0.501855 -0.252538,0.501855 -0.138896,0 -0.252538,-0.282765 -0.252538,-0.628368 0,-0.444195 -0.129532,-0.617513 -0.441942,-0.591332 -1.321171,0.110717 -2.803692,-0.0909 -3.234728,-0.439917 -0.467223,-0.378315 -0.454685,-0.390442 0.267405,-0.258618 0.416688,0.07607 1.04172,0.206301 1.38896,0.289401 0.608936,0.145729 0.613945,0.136981 0.141136,-0.246458 -0.269615,-0.218653 -0.781005,-0.399291 -1.136422,-0.401418 -0.743496,-0.0044 -1.440702,-0.370572 -1.103058,-0.579248 0.125633,-0.07765 0.39346,-0.03677 0.595172,0.09083 0.201713,0.127604 0.672559,0.233748 1.046326,0.235875 0.373767,0.0021 0.74981,0.117509 0.835653,0.256405 0.08584,0.138896 0.534959,0.252538 0.998038,0.252538 0.934849,0 1.148536,-0.308039 1.148536,-1.655667 0,-0.702237 -0.140861,-0.929586 -0.781083,-1.260657 -0.429595,-0.222153 -0.723748,-0.461249 -0.653671,-0.531325 0.07008,-0.07008 0.449973,0.04265 0.844217,0.25049 l 0.716806,0.377902 0.300768,-2.441578 0.300768,-2.441578 -0.127876,2.47961 c -0.131745,2.554636 0.04288,3.202498 0.863202,3.202498 0.215124,0 0.598957,0.188076 0.852962,0.417948 0.431253,0.390279 0.461826,0.387677 0.461826,-0.0393 0,-0.251484 0.301739,-0.852844 0.670532,-1.336356 0.567599,-0.744162 0.623385,-0.954604 0.363405,-1.370897 -0.181793,-0.291098 -0.238787,-0.802928 -0.139662,-1.254239 0.143489,-0.653302 0.0299,-0.903331 -0.793465,-1.746532 -0.528511,-0.541243 -0.844032,-0.984079 -0.701159,-0.984079 0.142873,0 0.526673,0.284105 0.852888,0.631345 0.697687,0.742655 1.515228,0.837971 1.515228,0.17666 0,-0.514561 1.998979,-3.04425 2.423095,-3.066404 0.152086,-0.0079 0.979826,-0.469013 1.839422,-1.024597 0.859596,-0.555584 1.6443,-1.012679 1.743785,-1.015768 0.538966,-0.01673 1.484809,-1.116214 1.878912,-2.184114 0.434856,-1.178329 0.445297,-1.187073 0.309015,-0.258782 l -0.141048,0.960753 0.834769,-0.428073 c 0.459123,-0.23544 1.122947,-0.667779 1.475166,-0.960753 0.784261,-0.652345 6.670195,-3.610262 7.630227,-3.834493 0.536994,-0.125423 0.694479,-0.0701 0.694479,0.243978 0,0.223401 0.132626,0.377774 0.294722,0.34305 0.180116,-0.03858 0.313585,0.329687 0.343225,0.947018 0.05464,1.138081 -0.728575,2.313123 -1.874123,2.811702 -0.760547,0.331012 -1.794281,1.26293 -1.794281,1.617553 0,0.246321 0.974613,0.336047 3.030457,0.278991 l 1.136422,-0.03154 -1.08129,0.352151 c -0.59471,0.193684 -1.230901,0.476319 -1.413762,0.628078 -0.249353,0.206946 -0.446537,0.149882 -0.788752,-0.228258 -0.446742,-0.493646 -2.008493,-0.718346 -2.187856,-0.314781 -0.0463,0.104172 -0.732911,0.682568 -1.525805,1.285326 -0.792894,0.602757 -1.671707,1.455073 -1.952916,1.894036 -0.28121,0.438962 -0.513205,0.646681 -0.515545,0.461596 -0.0029,-0.229051 -0.393504,-0.108079 -1.223135,0.378807 -2.159107,1.267116 -2.646606,1.761458 -2.462086,2.496644 0.09023,0.359521 0.300908,0.608058 0.468165,0.552306 0.167257,-0.05575 0.469549,0.06408 0.67176,0.266288 0.32185,0.32185 0.247609,0.477672 -0.595877,1.250668 l -0.963533,0.883012 0.173546,1.989487 c 0.104331,1.196031 0.0789,1.989486 -0.06377,1.989486 -0.130526,0 -0.317331,-1.02278 -0.415122,-2.272844 -0.171192,-2.188361 -0.200563,-2.272843 -0.790188,-2.272843 -0.621874,0 -0.819726,0.347126 -0.359848,0.631346 0.310968,0.192189 0.336661,1.136421 0.03092,1.136421 -0.121889,0 -0.363088,-0.170463 -0.535998,-0.378807 -0.17291,-0.208344 -0.49966,-0.378807 -0.72611,-0.378807 -0.359745,0 -0.411638,0.418706 -0.411019,3.31641 l 7.07e-4,3.316411 -1.136421,0.341559 c -1.467636,0.441107 -1.891428,0.410563 -0.757615,-0.0546 l 0,0 z M 19.03149,32.131716 c -0.162457,-0.466025 -0.549291,-0.849528 -1.06015,-1.051023 -0.442397,-0.174491 -1.060053,-0.545959 -1.372569,-0.825484 l -0.568211,-0.508227 0,1.295269 c 0,1.279831 0.01051,1.29724 0.881982,1.460729 0.48509,0.091 1.049661,0.101116 1.254603,0.02247 0.204942,-0.07864 0.439789,-0.03431 0.521882,0.09852 0.335709,0.543188 0.580674,0.191075 0.342463,-0.492257 l 0,-10e-7 z m 4.068168,-2.233557 c 0.0011,-0.590308 -0.09024,-1.073287 -0.202949,-1.073287 -0.435085,0 -1.337952,1.078936 -1.201163,1.435403 0.07887,0.20552 0.143391,0.58097 0.143391,0.834334 0,0.400716 0.0819,0.422676 0.629375,0.168749 0.525716,-0.243834 0.6297,-0.468684 0.631346,-1.365199 z"
       id="path3646" />
    <path
       style="fill:#5f5f5f;fill-opacity:1;stroke:#666666;stroke-width:0.06389215;stroke-miterlimit:4;stroke-opacity:1;stroke-dasharray:none"
       d="m 21.586399,36.249724 c 1.629662,-0.668597 1.636792,-0.678916 1.716646,-2.484419 0.07269,-1.643545 0.05721,-1.693405 -0.473567,-1.524944 -0.371039,0.117763 -0.492762,0.08362 -0.375916,-0.105438 0.388895,-0.629247 -1.380381,-0.0046 -2.312456,0.816385 -0.492011,0.433384 -0.796379,0.47465 -2.462247,0.333833 -1.782316,-0.150661 -1.900837,-0.129388 -1.900837,0.341176 0,0.27602 -0.113642,0.501855 -0.252538,0.501855 -0.138896,0 -0.252538,-0.282765 -0.252538,-0.628368 0,-0.444195 -0.129532,-0.617513 -0.441942,-0.591332 -1.321171,0.110717 -2.803692,-0.0909 -3.234728,-0.439917 -0.467223,-0.378315 -0.454685,-0.390442 0.267405,-0.258618 0.416688,0.07607 1.04172,0.206301 1.38896,0.289401 0.608936,0.145729 0.613945,0.136981 0.141136,-0.246458 -0.269615,-0.218653 -0.781005,-0.399291 -1.136422,-0.401418 -0.743496,-0.0044 -1.440702,-0.370572 -1.103058,-0.579248 0.125633,-0.07765 0.39346,-0.03677 0.595172,0.09083 0.201713,0.127604 0.672559,0.233748 1.046326,0.235875 0.373767,0.0021 0.74981,0.117509 0.835653,0.256405 0.08584,0.138896 0.534959,0.252538 0.998038,0.252538 0.934849,0 1.148536,-0.308039 1.148536,-1.655667 0,-0.702237 -0.140861,-0.929586 -0.781083,-1.260657 -0.429595,-0.222153 -0.723748,-0.461249 -0.653671,-0.531325 0.07008,-0.07008 0.449973,0.04265 0.844217,0.25049 l 0.716806,0.377902 0.300768,-2.441578 0.300768,-2.441578 -0.127876,2.47961 c -0.131745,2.554636 0.04288,3.202498 0.863202,3.202498 0.215124,0 0.598957,0.188076 0.852962,0.417948 0.431253,0.390279 0.461826,0.387677 0.461826,-0.0393 0,-0.251484 0.301739,-0.852844 0.670532,-1.336356 0.567599,-0.744162 0.623385,-0.954604 0.363405,-1.370897 -0.181793,-0.291098 -0.238787,-0.802928 -0.139662,-1.254239 0.143489,-0.653302 0.0299,-0.903331 -0.793465,-1.746532 -0.528511,-0.541243 -0.844032,-0.984079 -0.701159,-0.984079 0.142873,0 0.526673,0.284105 0.852888,0.631345 0.697687,0.742655 1.515228,0.837971 1.515228,0.17666 0,-0.514561 1.998979,-3.04425 2.423095,-3.066404 0.152086,-0.0079 0.979826,-0.469013 1.839422,-1.024597 0.859596,-0.555584 1.6443,-1.012679 1.743785,-1.015768 0.538966,-0.01673 1.484809,-1.116214 1.878912,-2.184114 0.434856,-1.178329 0.445297,-1.187073 0.309015,-0.258782 l -0.141048,0.960753 0.834769,-0.428073 c 0.459123,-0.23544 1.122947,-0.667779 1.475166,-0.960753 0.784261,-0.652345 6.670195,-3.610262 7.630227,-3.834493 0.536994,-0.125423 0.694479,-0.0701 0.694479,0.243978 0,0.223401 0.132626,0.377774 0.294722,0.34305 0.180116,-0.03858 0.313585,0.329687 0.343225,0.947018 0.05464,1.138081 -0.728575,2.313123 -1.874123,2.811702 -0.760547,0.331012 -1.794281,1.26293 -1.794281,1.617553 0,0.246321 0.974613,0.336047 3.030457,0.278991 l 1.136422,-0.03154 -1.08129,0.352151 c -0.59471,0.193684 -1.230901,0.476319 -1.413762,0.628078 -0.249353,0.206946 -0.446537,0.149882 -0.788752,-0.228258 -0.446742,-0.493646 -2.008493,-0.718346 -2.187856,-0.314781 -0.0463,0.104172 -0.732911,0.682568 -1.525805,1.285326 -0.792894,0.602757 -1.671707,1.455073 -1.952916,1.894036 -0.28121,0.438962 -0.513205,0.646681 -0.515545,0.461596 -0.0029,-0.229051 -0.393504,-0.108079 -1.223135,0.378807 -2.159107,1.267116 -2.646606,1.761458 -2.462086,2.496644 0.09023,0.359521 0.300908,0.608058 0.468165,0.552306 0.167257,-0.05575 0.469549,0.06408 0.67176,0.266288 0.32185,0.32185 0.247609,0.477672 -0.595877,1.250668 l -0.963533,0.883012 0.173546,1.989487 c 0.104331,1.196031 0.0789,1.989486 -0.06377,1.989486 -0.130526,0 -0.317331,-1.02278 -0.415122,-2.272844 -0.171192,-2.188361 -0.200563,-2.272843 -0.790188,-2.272843 -0.621874,0 -0.819726,0.347126 -0.359848,0.631346 0.310968,0.192189 0.336661,1.136421 0.03092,1.136421 -0.121889,0 -0.363088,-0.170463 -0.535998,-0.378807 -0.17291,-0.208344 -0.49966,-0.378807 -0.72611,-0.378807 -0.359745,0 -0.411638,0.418706 -0.411019,3.31641 l 7.07e-4,3.316411 -1.136421,0.341559 c -1.467636,0.441107 -1.891428,0.410563 -0.757615,-0.0546 l 0,0 z M 19.03149,32.131716 c -0.162457,-0.466025 -0.549291,-0.849528 -1.06015,-1.051023 -0.442397,-0.174491 -1.060053,-0.545959 -1.372569,-0.825484 l -0.568211,-0.508227 0,1.295269 c 0,1.279831 0.01051,1.29724 0.881982,1.460729 0.48509,0.091 1.049661,0.101116 1.254603,0.02247 0.204942,-0.07864 0.439789,-0.03431 0.521882,0.09852 0.335709,0.543188 0.580674,0.191075 0.342463,-0.492257 l 0,-10e-7 z m 4.068168,-2.233557 c 0.0011,-0.590308 -0.09024,-1.073287 -0.202949,-1.073287 -0.435085,0 -1.337952,1.078936 -1.201163,1.435403 0.07887,0.20552 0.143391,0.58097 0.143391,0.834334 0,0.400716 0.0819,0.422676 0.629375,0.168749 0.525716,-0.243834 0.6297,-0.468684 0.631346,-1.365199 z"
       id="path3648" />
  </g>
  <g
     inkscape:groupmode="layer"
     id="layer3"
     inkscape:label="mos">
    <image
       y="12.605665"
       x="7.8866043"
       id="image2858"
       height="29.711"
       width="40.077"
       xlink:href="file:///data/projects/OLPC/dev.activity/inkscape_pasted_image_20100603_144831.png" />
    <path
       style="fill:#5f5f5f;fill-opacity:1;stroke:#666666;stroke-width:0.06389215;stroke-miterlimit:4;stroke-opacity:1;stroke-dasharray:none"
       d="m 21.586399,36.249724 c 1.629662,-0.668597 1.636792,-0.678916 1.716646,-2.484419 0.07269,-1.643545 0.05721,-1.693405 -0.473567,-1.524944 -0.371039,0.117763 -0.492762,0.08362 -0.375916,-0.105438 0.388895,-0.629247 -1.380381,-0.0046 -2.312456,0.816385 -0.492011,0.433384 -0.796379,0.47465 -2.462247,0.333833 -1.782316,-0.150661 -1.900837,-0.129388 -1.900837,0.341176 0,0.27602 -0.113642,0.501855 -0.252538,0.501855 -0.138896,0 -0.252538,-0.282765 -0.252538,-0.628368 0,-0.444195 -0.129532,-0.617513 -0.441942,-0.591332 -1.321171,0.110717 -2.803692,-0.0909 -3.234728,-0.439917 -0.467223,-0.378315 -0.454685,-0.390442 0.267405,-0.258618 0.416688,0.07607 1.04172,0.206301 1.38896,0.289401 0.608936,0.145729 0.613945,0.136981 0.141136,-0.246458 -0.269615,-0.218653 -0.781005,-0.399291 -1.136422,-0.401418 -0.743496,-0.0044 -1.440702,-0.370572 -1.103058,-0.579248 0.125633,-0.07765 0.39346,-0.03677 0.595172,0.09083 0.201713,0.127604 0.672559,0.233748 1.046326,0.235875 0.373767,0.0021 0.74981,0.117509 0.835653,0.256405 0.08584,0.138896 0.534959,0.252538 0.998038,0.252538 0.934849,0 1.148536,-0.308039 1.148536,-1.655667 0,-0.702237 -0.140861,-0.929586 -0.781083,-1.260657 -0.429595,-0.222153 -0.723748,-0.461249 -0.653671,-0.531325 0.07008,-0.07008 0.449973,0.04265 0.844217,0.25049 l 0.716806,0.377902 0.300768,-2.441578 0.300768,-2.441578 -0.127876,2.47961 c -0.131745,2.554636 0.04288,3.202498 0.863202,3.202498 0.215124,0 0.598957,0.188076 0.852962,0.417948 0.431253,0.390279 0.461826,0.387677 0.461826,-0.0393 0,-0.251484 0.301739,-0.852844 0.670532,-1.336356 0.567599,-0.744162 0.623385,-0.954604 0.363405,-1.370897 -0.181793,-0.291098 -0.238787,-0.802928 -0.139662,-1.254239 0.143489,-0.653302 0.0299,-0.903331 -0.793465,-1.746532 -0.528511,-0.541243 -0.844032,-0.984079 -0.701159,-0.984079 0.142873,0 0.526673,0.284105 0.852888,0.631345 0.697687,0.742655 1.515228,0.837971 1.515228,0.17666 0,-0.514561 1.998979,-3.04425 2.423095,-3.066404 0.152086,-0.0079 0.979826,-0.469013 1.839422,-1.024597 0.859596,-0.555584 1.6443,-1.012679 1.743785,-1.015768 0.538966,-0.01673 1.484809,-1.116214 1.878912,-2.184114 0.434856,-1.178329 0.445297,-1.187073 0.309015,-0.258782 l -0.141048,0.960753 0.834769,-0.428073 c 0.459123,-0.23544 1.122947,-0.667779 1.475166,-0.960753 0.784261,-0.652345 6.670195,-3.610262 7.630227,-3.834493 0.536994,-0.125423 0.694479,-0.0701 0.694479,0.243978 0,0.223401 0.132626,0.377774 0.294722,0.34305 0.180116,-0.03858 0.313585,0.329687 0.343225,0.947018 0.05464,1.138081 -0.728575,2.313123 -1.874123,2.811702 -0.760547,0.331012 -1.794281,1.26293 -1.794281,1.617553 0,0.246321 0.974613,0.336047 3.030457,0.278991 l 1.136422,-0.03154 -1.08129,0.352151 c -0.59471,0.193684 -1.230901,0.476319 -1.413762,0.628078 -0.249353,0.206946 -0.446537,0.149882 -0.788752,-0.228258 -0.446742,-0.493646 -2.008493,-0.718346 -2.187856,-0.314781 -0.0463,0.104172 -0.732911,0.682568 -1.525805,1.285326 -0.792894,0.602757 -1.671707,1.455073 -1.952916,1.894036 -0.28121,0.438962 -0.513205,0.646681 -0.515545,0.461596 -0.0029,-0.229051 -0.393504,-0.108079 -1.223135,0.378807 -2.159107,1.267116 -2.646606,1.761458 -2.462086,2.496644 0.09023,0.359521 0.300908,0.608058 0.468165,0.552306 0.167257,-0.05575 0.469549,0.06408 0.67176,0.266288 0.32185,0.32185 0.247609,0.477672 -0.595877,1.250668 l -0.963533,0.883012 0.173546,1.989487 c 0.104331,1.196031 0.0789,1.989486 -0.06377,1.989486 -0.130526,0 -0.317331,-1.02278 -0.415122,-2.272844 -0.171192,-2.188361 -0.200563,-2.272843 -0.790188,-2.272843 -0.621874,0 -0.819726,0.347126 -0.359848,0.631346 0.310968,0.192189 0.336661,1.136421 0.03092,1.136421 -0.121889,0 -0.363088,-0.170463 -0.535998,-0.378807 -0.17291,-0.208344 -0.49966,-0.378807 -0.72611,-0.378807 -0.359745,0 -0.411638,0.418706 -0.411019,3.31641 l 7.07e-4,3.316411 -1.136421,0.341559 c -1.467636,0.441107 -1.891428,0.410563 -0.757615,-0.0546 l 0,0 z M 19.03149,32.131716 c -0.162457,-0.466025 -0.549291,-0.849528 -1.06015,-1.051023 -0.442397,-0.174491 -1.060053,-0.545959 -1.372569,-0.825484 l -0.568211,-0.508227 0,1.295269 c 0,1.279831 0.01051,1.29724 0.881982,1.460729 0.48509,0.091 1.049661,0.101116 1.254603,0.02247 0.204942,-0.07864 0.439789,-0.03431 0.521882,0.09852 0.335709,0.543188 0.580674,0.191075 0.342463,-0.492257 l 0,-10e-7 z m 4.068168,-2.233557 c 0.0011,-0.590308 -0.09024,-1.073287 -0.202949,-1.073287 -0.435085,0 -1.337952,1.078936 -1.201163,1.435403 0.07887,0.20552 0.143391,0.58097 0.143391,0.834334 0,0.400716 0.0819,0.422676 0.629375,0.168749 0.525716,-0.243834 0.6297,-0.468684 0.631346,-1.365199 z"
       id="path3650" />
    <path
       style="fill:#5f5f5f;fill-opacity:1;stroke:#666666;stroke-width:0.01597304;stroke-miterlimit:4;stroke-opacity:1;stroke-dasharray:none"
       d="m 46.971889,42.126453 c -0.223505,-0.19648 -0.352022,-0.302047 -0.771481,-0.633714 -0.104172,-0.08237 -0.239122,-0.167911 -0.299889,-0.190092 -0.06077,-0.02218 -0.110486,-0.06577 -0.110486,-0.09686 0,-0.03109 -0.120744,-0.138523 -0.268321,-0.238736 -0.147577,-0.100213 -0.320103,-0.24613 -0.38339,-0.324259 -0.06329,-0.07813 -0.15401,-0.142053 -0.201607,-0.142053 -0.0476,0 -0.123664,-0.05088 -0.169038,-0.113069 -0.04537,-0.06219 -0.181935,-0.18037 -0.303469,-0.262627 -0.121534,-0.08226 -0.277792,-0.201672 -0.34724,-0.265367 -0.205383,-0.188369 -0.520578,-0.432224 -0.558671,-0.432224 -0.01945,0 -0.103344,-0.06392 -0.186427,-0.142052 -0.249856,-0.234958 -0.674026,-0.57189 -0.86999,-0.691063 -0.101335,-0.06162 -0.184246,-0.13896 -0.184246,-0.171855 0,-0.03289 -0.05033,-0.07578 -0.111844,-0.09531 -0.06151,-0.01952 -0.198756,-0.114879 -0.30498,-0.2119 -0.106224,-0.09702 -0.318692,-0.267329 -0.47215,-0.378464 -0.31638,-0.229122 -0.557441,-0.421594 -0.792196,-0.632521 -0.08877,-0.07976 -0.27242,-0.218485 -0.408106,-0.308278 -0.135686,-0.08979 -0.246702,-0.18311 -0.246702,-0.207372 0,-0.02426 -0.137425,-0.13316 -0.305388,-0.241997 -0.298169,-0.193207 -0.433901,-0.302388 -0.976384,-0.785395 -0.145763,-0.129782 -0.298926,-0.236322 -0.340362,-0.236754 -0.04144,-4.42e-4 -0.112586,-0.05051 -0.15811,-0.111273 -0.04552,-0.06077 -0.182085,-0.179342 -0.303469,-0.263499 -0.121383,-0.08416 -0.277518,-0.207473 -0.346966,-0.274032 -0.06945,-0.06656 -0.310938,-0.259451 -0.536644,-0.428647 -0.225706,-0.169196 -0.481401,-0.366493 -0.568211,-0.438437 -0.08681,-0.07194 -0.247137,-0.184374 -0.356282,-0.249844 -0.184928,-0.110928 -0.205994,-0.161313 -0.309239,-0.739626 -0.06094,-0.341324 -0.128621,-0.634794 -0.150412,-0.652156 -0.02179,-0.01736 -0.135158,-0.514547 -0.251927,-1.104854 -0.116768,-0.590308 -0.234084,-1.101698 -0.2607,-1.136422 -0.02662,-0.03472 -0.126967,-0.460882 -0.223001,-0.947018 -0.09603,-0.486136 -0.192785,-0.898089 -0.215002,-0.915451 -0.02222,-0.01736 -0.121792,-0.429315 -0.221277,-0.915451 -0.09948,-0.486135 -0.199014,-0.898088 -0.221175,-0.91545 -0.02216,-0.01736 -0.136116,-0.500341 -0.253231,-1.073287 -0.117116,-0.572946 -0.230508,-1.055925 -0.251982,-1.073287 -0.02147,-0.01736 -0.08908,-0.273057 -0.150243,-0.568211 -0.199343,-0.962018 -0.217608,-1.010153 -0.383305,-1.010153 -0.164252,0 -0.60343,0.353076 -0.60343,0.485126 0,0.0457 -0.02131,0.0839 -0.04735,0.08489 -0.02604,9.94e-4 -0.328709,0.270894 -0.67259,0.599778 -0.343882,0.328884 -0.659142,0.597971 -0.700579,0.597971 -0.148991,0 -1.249903,1.087172 -2.481828,2.450853 l -0.303397,0.335847 -0.07283,-0.159842 c -0.07007,-0.153782 -0.0065,-0.226645 1.676714,-1.921726 0.962249,-0.969036 1.962623,-1.993785 2.223053,-2.27722 0.543104,-0.591081 0.779109,-0.734463 1.107506,-0.672856 0.272825,0.05118 0.299746,0.110936 0.44254,0.982253 0.05975,0.364602 0.127849,0.677118 0.151328,0.69448 0.02348,0.01736 0.137225,0.500342 0.252769,1.073287 0.115545,0.572946 0.229174,1.055926 0.25251,1.073288 0.02334,0.01736 0.07763,0.20203 0.120655,0.410374 0.17413,0.84322 0.289439,1.327485 0.323211,1.357392 0.0196,0.01736 0.0876,0.273057 0.15111,0.568211 0.0635,0.295154 0.158242,0.735518 0.210527,0.978586 0.05228,0.243067 0.11653,0.470352 0.142766,0.505076 0.02624,0.03472 0.127361,0.432471 0.22472,0.883883 0.09736,0.451412 0.196162,0.834954 0.21956,0.852316 0.0234,0.01736 0.125185,0.422199 0.226192,0.899636 0.113841,0.538103 0.212802,0.86808 0.260346,0.8681 0.09575,3.9e-5 0.207408,0.20176 0.207408,0.374688 0,0.07173 0.02301,0.13042 0.05112,0.13042 0.05269,0 0.601562,0.43199 0.915645,0.720663 0.09767,0.08977 0.19301,0.16322 0.211858,0.16322 0.03336,0 0.269243,0.182061 0.58914,0.454714 0.08681,0.07399 0.25017,0.189423 0.363023,0.256517 0.112853,0.06709 0.205188,0.146865 0.205188,0.177268 0,0.0304 0.07813,0.09659 0.17362,0.147092 0.09549,0.0505 0.263856,0.171973 0.374146,0.269944 0.190666,0.169367 0.38425,0.329203 0.809626,0.668481 0.104172,0.08309 0.239122,0.169217 0.299889,0.191399 0.06077,0.02218 0.110486,0.06586 0.110486,0.09706 0,0.0312 0.120589,0.136529 0.267976,0.234065 0.147387,0.09754 0.319912,0.243364 0.383389,0.324062 0.06348,0.0807 0.142164,0.146724 0.174858,0.146724 0.05163,0 0.601443,0.420058 0.878409,0.671109 0.186576,0.169119 0.492401,0.402178 0.527747,0.402178 0.03644,0 0.121138,0.07047 0.577107,0.480164 0.138896,0.1248 0.329825,0.266986 0.424287,0.315968 0.09446,0.04898 0.202,0.145586 0.238976,0.214674 0.03697,0.06909 0.10174,0.125747 0.143924,0.125908 0.04218,1.9e-4 0.161928,0.07968 0.2661,0.176702 0.104172,0.09702 0.345695,0.291441 0.536719,0.432036 0.191023,0.140595 0.386273,0.302569 0.433888,0.359942 0.04762,0.05737 0.1241,0.104315 0.169965,0.104315 0.04587,0 0.120516,0.04973 0.16589,0.110519 0.04537,0.06079 0.19614,0.19363 0.335036,0.295211 0.138896,0.101582 0.295154,0.222162 0.34724,0.267957 0.256774,0.225759 0.498127,0.3996 0.554787,0.3996 0.03468,0 0.07934,0.04245 0.09925,0.09434 0.01991,0.05189 0.12949,0.151218 0.243509,0.220734 l 0.207308,0.126395 -0.192034,2.52e-4 c -0.126914,1.26e-4 -0.271186,-0.06934 -0.425445,-0.204951 l 0,-1.6e-5 z"
       id="path3652" />
    <path
       style="fill:#5f5f5f;fill-opacity:1;stroke:#666666;stroke-width:0.01597304;stroke-miterlimit:4;stroke-opacity:1;stroke-dasharray:none"
       d="m 40.103281,22.89767 c -0.08937,-0.09312 -0.288097,-0.26874 -0.441627,-0.390274 -0.323509,-0.256089 -0.484663,-0.407469 -1.633641,-1.534557 -0.561017,-0.550329 -0.814693,-0.839183 -0.748223,-0.851984 0.05864,-0.01129 0.361292,0.238709 0.72588,0.599592 0.343923,0.340428 0.730566,0.704192 0.859206,0.808364 0.128641,0.104172 0.297592,0.248496 0.375447,0.32072 0.07786,0.07222 0.297813,0.214277 0.488795,0.315673 0.190982,0.101396 0.35671,0.205664 0.368285,0.231707 0.03154,0.07096 0.26306,0.05707 0.26306,-0.01578 0,-0.03472 0.04262,-0.06313 0.0947,-0.06313 0.05209,0 0.0947,0.02229 0.0947,0.04952 0,0.02724 0.0873,0.101092 0.194003,0.164122 0.231104,0.136517 1.740144,0.221195 4.020227,0.22559 0.892601,0.0017 1.404744,0.02573 1.404744,0.06584 0,0.03919 0.347239,0.06313 0.91545,0.06313 0.771644,0 0.915451,0.01488 0.915451,0.0947 0,0.08188 -0.235001,0.0947 -1.7362,0.0947 -1.115377,0 -1.736199,-0.02257 -1.736199,-0.06314 0,-0.04071 -0.683958,-0.06313 -1.925604,-0.06313 -1.241645,0 -1.925603,0.02242 -1.925603,0.06313 0,0.136586 -0.410558,0.05431 -0.572855,-0.114802 z"
       id="path3654" />
    <path
       style="fill:#5f5f5f;fill-opacity:1;stroke:#666666;stroke-width:0.01597304;stroke-miterlimit:4;stroke-opacity:1;stroke-dasharray:none"
       d="m 40.148678,19.00226 c 0.03964,-0.103295 -0.0079,-0.10852 -0.677758,-0.07447 -0.755613,0.03842 -0.733871,0.02942 0.447602,-0.185315 0.329878,-0.05995 0.613983,-0.127424 0.631345,-0.149933 0.01736,-0.02251 0.41511,-0.121717 0.883883,-0.220463 0.468774,-0.09875 0.866522,-0.199497 0.883884,-0.223891 0.01736,-0.02439 0.41511,-0.124185 0.883883,-0.221758 0.468774,-0.09757 0.866522,-0.197629 0.883884,-0.222347 0.02574,-0.03664 1.003842,-0.279521 1.704632,-0.423294 0.08681,-0.01781 0.172042,-0.05193 0.189404,-0.07582 0.0277,-0.03812 0.741069,-0.218092 1.38896,-0.350421 0.121534,-0.02482 0.235176,-0.0656 0.252538,-0.09061 0.01736,-0.02501 0.109696,-0.0646 0.205187,-0.08797 0.15999,-0.03916 0.17362,-0.02776 0.17362,0.145148 0,0.206344 0.0059,0.203599 -0.915451,0.424947 -0.243068,0.05839 -0.456147,0.124929 -0.473509,0.147855 -0.01736,0.02292 -0.429315,0.135577 -0.91545,0.250337 -0.486136,0.11476 -0.898089,0.228513 -0.915451,0.252785 -0.01736,0.02427 -0.17362,0.07371 -0.34724,0.109874 -0.778033,0.162038 -1.328338,0.296724 -1.357393,0.33222 -0.0305,0.03726 -1.237263,0.328305 -1.720416,0.414928 -0.130215,0.02335 -0.236754,0.06201 -0.236754,0.08592 0,0.02391 -0.163361,0.07779 -0.363024,0.119726 -0.199663,0.04194 -0.427369,0.09366 -0.506014,0.114942 -0.117616,0.03183 -0.135426,0.01898 -0.100362,-0.0724 z"
       id="path3656" />
    <path
       style="fill:#5f5f5f;fill-opacity:1;stroke:#666666;stroke-width:0.01597304;stroke-miterlimit:4;stroke-opacity:1;stroke-dasharray:none"
       d="m 14.683399,42.110399 c 0.07653,-0.121682 0.25989,-0.406459 0.407467,-0.632838 0.147577,-0.226379 0.268322,-0.43398 0.268322,-0.461335 0,-0.02736 0.0538,-0.107485 0.119557,-0.178066 0.06576,-0.07058 0.166704,-0.219502 0.224329,-0.330935 0.05762,-0.111433 0.152978,-0.25155 0.211899,-0.311371 0.05892,-0.05982 0.188979,-0.264286 0.28902,-0.454367 0.10004,-0.190082 0.213683,-0.374581 0.252538,-0.409998 0.03886,-0.03542 0.101149,-0.12065 0.13843,-0.189404 0.220368,-0.406407 0.322111,-0.570231 0.412661,-0.664459 0.0559,-0.05817 0.169542,-0.244528 0.252538,-0.414127 0.167582,-0.34245 0.507478,-0.719487 0.648611,-0.719487 0.05035,0 0.101015,-0.02309 0.11259,-0.05132 0.01158,-0.02822 0.30515,-0.130862 0.65239,-0.228087 0.34724,-0.09723 0.659756,-0.198523 0.69448,-0.225107 0.03472,-0.02658 0.389856,-0.142775 0.789182,-0.258202 0.399326,-0.115427 0.740252,-0.228761 0.757614,-0.251854 0.03983,-0.05298 0.762886,-0.263899 0.794905,-0.231881 0.01305,0.01305 -0.174678,0.115639 -0.417161,0.227987 -0.474363,0.219782 -0.541252,0.303851 -0.267259,0.335899 0.12052,0.0141 1.9e-4,0.06495 -0.393495,0.166287 -0.311914,0.08029 -0.581814,0.166451 -0.599778,0.191472 -0.01797,0.02502 -0.373589,0.128093 -0.790277,0.229049 -0.416688,0.100956 -0.77182,0.203253 -0.789182,0.227327 -0.01736,0.02408 -0.141467,0.07398 -0.275789,0.110907 -0.239352,0.0658 -0.481825,0.233003 -0.481825,0.332261 0,0.02755 -0.07103,0.126735 -0.157837,0.220405 -0.08681,0.09367 -0.157836,0.204626 -0.157836,0.246571 0,0.04194 -0.06602,0.147497 -0.146704,0.23456 -0.08069,0.08706 -0.227383,0.297188 -0.325991,0.466945 -0.09861,0.169756 -0.198411,0.322853 -0.221785,0.340215 -0.02337,0.01736 -0.123906,0.17362 -0.223405,0.34724 -0.0995,0.17362 -0.205444,0.332707 -0.235433,0.353528 -0.05119,0.03553 -0.126243,0.16174 -0.343579,0.577707 -0.04989,0.09549 -0.113807,0.17362 -0.142031,0.17362 -0.02822,0 -0.09971,0.101973 -0.158849,0.226607 -0.05914,0.124635 -0.15932,0.278396 -0.222616,0.341692 -0.0633,0.06329 -0.209914,0.287706 -0.325819,0.49869 -0.15861,0.28872 -0.245155,0.383792 -0.349882,0.384356 l -0.139146,7.49e-4 0.139146,-0.221241 z"
       id="path3658" />
    <path
       style="fill:#5f5f5f;fill-opacity:1;stroke:#666666;stroke-width:0.01597304;stroke-miterlimit:4;stroke-opacity:1;stroke-dasharray:none"
       d="m 7.9222548,34.955891 c 0.021149,-0.109818 0.3810957,-0.17827 1.7548252,-0.333722 0.364602,-0.04126 0.677118,-0.09331 0.69448,-0.115669 0.02989,-0.03849 1.724176,-0.231381 3.488183,-0.397126 0.442731,-0.0416 0.804965,-0.09791 0.804965,-0.12513 0,-0.02722 0.0748,-0.0495 0.166214,-0.0495 0.09142,0 0.21476,-0.05597 0.274092,-0.124383 0.105592,-0.121749 0.109275,-0.119828 0.173884,0.09069 0.07213,0.235014 0.02438,0.286234 -0.266852,0.286234 -0.08108,0 -0.156882,0.02321 -0.168457,0.05158 -0.02014,0.04937 -3.273598,0.393709 -3.698631,0.391454 -0.112853,-5.98e-4 -0.205187,0.02174 -0.205187,0.04965 0,0.02791 -0.575314,0.09988 -1.2784746,0.159943 -0.7031609,0.06006 -1.3865892,0.134027 -1.5187297,0.16437 -0.2060784,0.04732 -0.2374184,0.04044 -0.2203119,-0.04839 z"
       id="path3660" />
    <path
       style="fill:#5f5f5f;fill-opacity:1;stroke:#666666;stroke-width:0.01597304;stroke-miterlimit:4;stroke-opacity:1;stroke-dasharray:none"
       d="m 28.242728,16.893674 c -0.0068,-0.149284 0.331811,-1.361135 0.386664,-1.383689 0.02815,-0.01157 0.05118,-0.07347 0.05118,-0.137543 0,-0.206724 0.184594,-0.329876 0.426447,-0.284504 0.246838,0.04631 0.63903,0.216532 0.758398,0.32917 0.04399,0.04151 0.193151,0.139081 0.331457,0.216813 0.138305,0.07773 0.251465,0.166187 0.251465,0.196566 0,0.03038 -0.02131,0.043 -0.04735,0.02805 -0.260525,-0.149563 -1.033404,-0.486298 -1.147005,-0.499738 -0.09154,-0.01083 -0.171793,0.02937 -0.217238,0.108824 -0.03964,0.0693 -0.117851,0.197146 -0.173807,0.284105 -0.05596,0.08696 -0.120925,0.263354 -0.144375,0.391989 -0.02847,0.156166 -0.07014,0.22333 -0.125396,0.202124 -0.05381,-0.02065 -0.128869,0.08528 -0.214554,0.302762 -0.07249,0.183986 -0.133636,0.294267 -0.135888,0.245069 z"
       id="path3662" />
    <path
       style="fill:#5f5f5f;fill-opacity:1;stroke:#666666;stroke-width:0.01597304;stroke-miterlimit:4;stroke-opacity:1;stroke-dasharray:none"
       d="m 14.013857,28.838591 c 0.197777,-0.02473 0.199273,-0.02738 0.08177,-0.144882 -0.06583,-0.06583 -0.227518,-0.172417 -0.359301,-0.236854 -0.338129,-0.165332 -0.528986,-0.281425 -0.677076,-0.411847 -0.07052,-0.06211 -0.191699,-0.128859 -0.269274,-0.148329 -0.07758,-0.01947 -0.157177,-0.08622 -0.176892,-0.148337 -0.01971,-0.06212 -0.14858,-0.187541 -0.286367,-0.278724 -0.137788,-0.09118 -0.250524,-0.186984 -0.250524,-0.212889 0,-0.02591 -0.07496,-0.127936 -0.166568,-0.226736 -0.134255,-0.144789 -0.149565,-0.190576 -0.07892,-0.236031 0.140408,-0.09034 0.269854,-0.03646 0.358936,0.149407 0.106487,0.222177 0.249557,0.221787 0.283272,-7.72e-4 0.02503,-0.165219 0.02676,-0.163913 0.03576,0.02698 0.01028,0.218072 0.282162,0.492307 0.431329,0.435066 0.0476,-0.01827 0.08321,0.01153 0.08321,0.06961 0,0.109019 0.173286,0.268003 0.295696,0.271293 0.0411,0.0011 0.08656,-0.07612 0.101026,-0.171612 0.02351,-0.155164 0.02731,-0.1509 0.03576,0.04011 0.01143,0.258351 0.197707,0.447589 0.640549,0.650747 0.173761,0.07971 0.318761,0.173512 0.322222,0.208439 0.0035,0.03493 0.02904,-0.0075 0.05684,-0.09433 l 0.05055,-0.157836 0.0063,0.166256 c 0.0045,0.119572 -0.0315,0.176141 -0.128315,0.201457 -0.09892,0.02587 -0.125596,0.06966 -0.100612,0.1652 0.03057,0.116896 0.0075,0.128981 -0.228416,0.119895 -0.226925,-0.0087 -0.235167,-0.01351 -0.06095,-0.03529 l 0,0 z"
       id="path3664" />
    <path
       style="fill:#5f5f5f;fill-opacity:1;stroke:#666666;stroke-width:0.01597304;stroke-miterlimit:4;stroke-opacity:1;stroke-dasharray:none"
       d="m 16.541354,25.315109 c 0.01745,-0.573516 0.005,-0.931234 -0.03236,-0.931234 -0.03339,0 -0.07913,0.16336 -0.101645,0.363023 -0.05747,0.509547 -0.08364,0.547263 -0.08943,0.128848 -0.006,-0.436182 0.11766,-1.31262 0.18525,-1.31262 0.02674,0 0.06782,-0.07813 0.0913,-0.17362 0.06346,-0.258098 0.211653,-0.457726 0.339796,-0.457726 0.06234,0 0.225045,0.101135 0.361568,0.224745 0.136523,0.123609 0.326352,0.266391 0.421843,0.317294 0.115237,0.06143 0.17362,0.143343 0.17362,0.243601 0,0.08308 0.01724,0.19599 0.03832,0.250916 0.06022,0.156943 -0.05023,0.117242 -0.293875,-0.105623 -0.123192,-0.112687 -0.336271,-0.261707 -0.473509,-0.331155 -0.137238,-0.06945 -0.266585,-0.149485 -0.287437,-0.17786 -0.04279,-0.05823 -0.119923,0.590033 -0.119923,1.007871 0,0.151164 -0.02429,0.274844 -0.05399,0.274844 -0.0297,0 -0.08411,0.362234 -0.12093,0.804965 l -0.06694,0.804965 0.02834,-0.931234 z"
       id="path3716" />
  </g>
  <g
     inkscape:groupmode="layer"
     id="layer4"
     inkscape:label="icon"
     style="display:inline" />
</svg>
